<?xml version="1.0" standalone="no"?>
<!-- Generator: Adobe Fireworks 10, Export SVG Extension by Aaron Beall (http://fireworks.abeall.com) . Version: 0.6.1  -->
<!DOCTYPE svg PUBLIC "-//W3C//DTD SVG 1.1//EN" "http://www.w3.org/Graphics/SVG/1.1/DTD/svg11.dtd">
<svg id="01%20-%20%u0433%u043B%u0430%u0432%u043D%u0430%u044F_1280-Page%201" viewBox="0 0 14 25" style="background-color:#ffffff" version="1.1"
	xmlns="http://www.w3.org/2000/svg" xmlns:xlink="http://www.w3.org/1999/xlink" xml:space="preserve"
	x="0px" y="0px" width="14px" height="25px"
>
	<rect x="-877" y="-505" width="920" height="670" fill="#f6f6f6"/>
	<g>
		<g>
			<path d="M 0.7004 12.9783 L 12.3098 24.3002 C 12.5834 24.5666 13.0215 24.5666 13.295 24.3002 C 13.5684 24.0334 13.5684 23.6061 13.295 23.3394 L 2.1808 12.5006 L 13.295 1.6616 C 13.5684 1.3951 13.5684 0.9676 13.295 0.7012 C 13.1609 0.5703 12.9805 0.5 12.8051 0.5 C 12.6296 0.5 12.4492 0.5653 12.3152 0.7012 L 0.7056 12.0227 C 0.4324 12.2843 0.4324 12.7167 0.7004 12.9783 L 0.7004 12.9783 ZM 0.7004 12.9783 L 0.7004 12.9783 Z" fill="#231f20"/>
		</g>
	</g>
</svg>