<?xml version="1.0" standalone="no"?>
<!-- Generator: Adobe Fireworks 10, Export SVG Extension by Aaron Beall (http://fireworks.abeall.com) . Version: 0.6.1  -->
<!DOCTYPE svg PUBLIC "-//W3C//DTD SVG 1.1//EN" "http://www.w3.org/Graphics/SVG/1.1/DTD/svg11.dtd">
<svg id="01%20-%20%u0433%u043B%u0430%u0432%u043D%u0430%u044F_1280-Page%201" viewBox="0 0 24 31" style="background-color:#ffffff" version="1.1"
	xmlns="http://www.w3.org/2000/svg" xmlns:xlink="http://www.w3.org/1999/xlink" xml:space="preserve"
	x="0px" y="0px" width="24px" height="31px"
>
	<g>
		<path d="M 18.1912 11.4847 L 5.5588 11.4847 C 5.2797 11.4847 5.053 11.707 5.053 11.9832 C 5.053 12.2623 5.2797 12.4849 5.5588 12.4849 L 18.1912 12.4849 C 18.47 12.4849 18.6969 12.2623 18.6969 11.9832 C 18.6969 11.707 18.47 11.4847 18.1912 11.4847 L 18.1912 11.4847 ZM 18.1912 11.4847 L 18.1912 11.4847 Z" fill="#000000"/>
		<path d="M 5.5588 8.4785 L 10.6117 8.4785 C 10.8905 8.4785 11.1177 8.2532 11.1177 7.9771 C 11.1177 7.701 10.8905 7.4756 10.6117 7.4756 L 5.5588 7.4756 C 5.2797 7.4756 5.053 7.701 5.053 7.9771 C 5.053 8.2532 5.2797 8.4785 5.5588 8.4785 L 5.5588 8.4785 ZM 5.5588 8.4785 L 5.5588 8.4785 Z" fill="#000000"/>
		<path d="M 18.1912 15.4908 L 5.5588 15.4908 C 5.2797 15.4908 5.053 15.7158 5.053 15.9922 C 5.053 16.2686 5.2797 16.4937 5.5588 16.4937 L 18.1912 16.4937 C 18.47 16.4937 18.6969 16.2686 18.6969 15.9922 C 18.6969 15.7158 18.47 15.4908 18.1912 15.4908 L 18.1912 15.4908 ZM 18.1912 15.4908 L 18.1912 15.4908 Z" fill="#000000"/>
		<path d="M 18.1912 19.4972 L 5.5588 19.4972 C 5.2797 19.4972 5.053 19.7222 5.053 19.9986 C 5.053 20.275 5.2797 20.5 5.5588 20.5 L 18.1912 20.5 C 18.47 20.5 18.6969 20.275 18.6969 19.9986 C 18.6969 19.7222 18.47 19.4972 18.1912 19.4972 L 18.1912 19.4972 ZM 18.1912 19.4972 L 18.1912 19.4972 Z" fill="#000000"/>
		<path d="M 18.1912 23.506 L 5.5588 23.506 C 5.2797 23.506 5.053 23.7286 5.053 24.0074 C 5.053 24.2838 5.2797 24.5063 5.5588 24.5063 L 18.1912 24.5063 C 18.47 24.5063 18.6969 24.2838 18.6969 24.0074 C 18.6969 23.7286 18.47 23.506 18.1912 23.506 L 18.1912 23.506 ZM 18.1912 23.506 L 18.1912 23.506 Z" fill="#000000"/>
		<path d="M 16.3777 0.4633 L 0 0.4633 L 0 30.5183 L 23.75 30.5183 L 23.75 7.7692 L 16.3777 0.4633 ZM 16.6738 2.1727 L 22.0228 7.4756 L 16.6738 7.4756 L 16.6738 2.1727 ZM 1.0118 29.5155 L 1.0118 1.4664 L 15.6648 1.4664 L 15.6648 8.4785 L 22.7383 8.4785 L 22.7383 29.5155 L 1.0118 29.5155 ZM 1.0118 29.5155 L 1.0118 29.5155 Z" fill="#000000"/>
	</g>
</svg>