<?xml version="1.0" standalone="no"?>
<!-- Generator: Adobe Fireworks 10, Export SVG Extension by Aaron Beall (http://fireworks.abeall.com) . Version: 0.6.1  -->
<!DOCTYPE svg PUBLIC "-//W3C//DTD SVG 1.1//EN" "http://www.w3.org/Graphics/SVG/1.1/DTD/svg11.dtd">
<svg id="01%20-%20%u0433%u043B%u0430%u0432%u043D%u0430%u044F_1280-Page%201" viewBox="0 0 30 31" style="background-color:#ffffff" version="1.1"
	xmlns="http://www.w3.org/2000/svg" xmlns:xlink="http://www.w3.org/1999/xlink" xml:space="preserve"
	x="0px" y="0px" width="30px" height="31px"
>
	<g>
		<path d="M 15 0 C 6.7296 0 0 6.7419 0 15.0279 C 0 23.3131 6.7296 30.0551 15 30.0551 C 23.2704 30.0551 30 23.3131 30 15.0279 C 30 6.7419 23.2704 0 15 0 L 15 0 ZM 15 28.898 C 7.3662 28.898 1.1554 22.6753 1.1554 15.0279 C 1.1554 7.3797 7.3662 1.1574 15 1.1574 C 22.6338 1.1574 28.8451 7.3797 28.8451 15.0279 C 28.8451 22.6753 22.6338 28.898 15 28.898 L 15 28.898 ZM 15 28.898 L 15 28.898 Z" fill="#ee2d24"/>
		<path d="M 15 5.7796 C 14.6814 5.7796 14.4226 6.0389 14.4226 6.3585 L 14.4226 19.0715 C 14.4226 19.3932 14.6814 19.6501 15 19.6501 C 15.3184 19.6501 15.5774 19.3932 15.5774 19.0715 L 15.5774 6.3585 C 15.5774 6.0389 15.3184 5.7796 15 5.7796 L 15 5.7796 ZM 15 5.7796 L 15 5.7796 Z" fill="#ee2d24"/>
		<path d="M 15 21.3856 C 14.6814 21.3856 14.4226 21.6425 14.4226 21.9614 L 14.4226 23.1184 C 14.4226 23.4373 14.6814 23.6969 15 23.6969 C 15.3184 23.6969 15.5774 23.4373 15.5774 23.1184 L 15.5774 21.9614 C 15.5774 21.6425 15.3184 21.3856 15 21.3856 L 15 21.3856 ZM 15 21.3856 L 15 21.3856 Z" fill="#ee2d24"/>
	</g>
</svg>