<?xml version="1.0" standalone="no"?>
<!-- Generator: Adobe Fireworks 10, Export SVG Extension by Aaron Beall (http://fireworks.abeall.com) . Version: 0.6.1  -->
<!DOCTYPE svg PUBLIC "-//W3C//DTD SVG 1.1//EN" "http://www.w3.org/Graphics/SVG/1.1/DTD/svg11.dtd">
<svg id="01%20-%20%u0433%u043B%u0430%u0432%u043D%u0430%u044F_1280-Page%201" viewBox="0 0 16 20" style="background-color:#ffffff" version="1.1"
	xmlns="http://www.w3.org/2000/svg" xmlns:xlink="http://www.w3.org/1999/xlink" xml:space="preserve"
	x="0px" y="0px" width="16px" height="20px"
>
	<rect x="-533" y="-41" width="920" height="670" fill="#f6f6f6"/>
	<g>
		<g>
			<g>
				<path d="M 14.8778 0 L 14.8762 0 C 14.3213 0 13.8437 0.3925 13.7653 0.9131 L 12.1307 11.756 C 12.0528 12.2727 12.3969 12.7579 12.9313 12.8844 L 13.4793 13.0142 L 13.1846 18.5984 C 13.165 18.9671 13.3024 19.3175 13.5708 19.5851 C 13.8394 19.8526 14.2018 19.9998 14.5913 19.9998 C 15.3681 19.9998 16 19.401 16 18.6651 L 16 1.0634 C 16 0.4771 15.4965 0 14.8778 0 L 14.8778 0 ZM 15.3163 18.6651 C 15.3163 19.0438 14.9911 19.3518 14.5913 19.3518 C 14.3909 19.3518 14.2045 19.2761 14.0663 19.1383 C 13.928 19.0009 13.8575 18.8205 13.8675 18.6307 L 14.1762 12.7806 C 14.1842 12.626 14.076 12.4877 13.9175 12.4501 L 13.0972 12.2559 C 12.9037 12.2101 12.7793 12.0346 12.8076 11.8478 L 14.4422 1.0046 C 14.4727 0.8013 14.6594 0.6479 14.8762 0.6479 L 14.8778 0.6479 C 15.1195 0.6479 15.3163 0.8344 15.3163 1.0634 L 15.3163 18.6651 ZM 15.3163 18.6651 L 15.3163 18.6651 Z" fill="#000000"/>
			</g>
		</g>
		<path d="M 10.5295 0.3077 C 10.5201 0.1291 10.3593 -0.0082 10.1709 0.0004 C 9.9824 0.0093 9.837 0.1613 9.8466 0.3402 L 10.1387 5.8747 L 9.0712 5.8747 L 9.0712 0.324 C 9.0712 0.1451 8.918 0 8.7293 0 C 8.5405 0 8.3874 0.1451 8.3874 0.324 L 8.3874 5.8747 L 7.3201 5.8747 L 7.6119 0.3402 C 7.6215 0.1615 7.4761 0.0093 7.2876 0.0004 C 7.0991 -0.0086 6.9386 0.1291 6.9291 0.3077 L 6.5851 6.8273 C 6.5665 7.1824 6.7487 7.5253 7.0609 7.7226 L 7.4739 7.9835 C 7.5859 8.0544 7.6503 8.1725 7.6462 8.2999 L 7.3239 18.6307 C 7.3133 18.9933 7.4546 19.3364 7.7215 19.5965 C 7.9883 19.8565 8.3462 20 8.7293 20 C 9.1123 20 9.4702 19.8565 9.7371 19.5965 C 10.004 19.3364 10.1453 18.9933 10.1346 18.63 L 9.8124 8.2999 C 9.8083 8.1725 9.8729 8.0544 9.9846 7.9835 L 10.3978 7.7226 C 10.7098 7.5253 10.8921 7.1824 10.8734 6.8273 L 10.5295 0.3077 ZM 10.0184 7.1835 L 9.6053 7.4444 C 9.296 7.6399 9.1179 7.9668 9.1288 8.319 L 9.4513 18.6486 C 9.4567 18.8348 9.3841 19.0112 9.247 19.1447 C 9.1099 19.2782 8.9261 19.3518 8.7293 19.3518 C 8.5327 19.3518 8.3489 19.2782 8.2115 19.1447 C 8.0744 19.0112 8.0021 18.8348 8.0074 18.6493 L 8.3297 8.319 C 8.3409 7.9668 8.1626 7.6399 7.8532 7.4444 L 7.4401 7.1835 C 7.3273 7.1122 7.2614 6.988 7.2682 6.8595 L 7.2858 6.5227 L 10.1729 6.5227 L 10.1905 6.8595 C 10.1974 6.988 10.1315 7.1122 10.0184 7.1835 L 10.0184 7.1835 ZM 10.0184 7.1835 L 10.0184 7.1835 Z" fill="#000000"/>
		<path d="M 2.8946 0 C 2.1824 0 1.1962 0.339 0.5438 1.9533 C 0.1425 2.9464 0 4.1163 0 4.8163 C 0 5.7805 0.519 6.656 1.3887 7.1588 C 1.6306 7.2986 1.7711 7.5349 1.7646 7.7909 L 1.4854 18.6316 C 1.4761 18.9943 1.6183 19.3372 1.8859 19.5972 C 2.1534 19.8567 2.5116 19.9998 2.8946 19.9998 C 3.2776 19.9998 3.6358 19.8567 3.9033 19.5972 C 4.1709 19.3372 4.313 18.9943 4.3037 18.6316 L 4.0246 7.7909 C 4.0182 7.5349 4.1586 7.2986 4.4004 7.1588 C 5.27 6.656 5.7892 5.7802 5.7892 4.8163 C 5.7892 4.1163 5.6469 2.9464 5.2455 1.9533 C 4.5928 0.339 3.6069 0 2.8946 0 L 2.8946 0 ZM 4.0443 6.6056 C 3.5981 6.8635 3.3287 7.3237 3.3412 7.8068 L 3.62 18.6474 C 3.6249 18.8342 3.5517 19.0107 3.4139 19.1445 C 3.2761 19.2782 3.0919 19.3518 2.8946 19.3518 C 2.6974 19.3518 2.5129 19.2782 2.3751 19.1445 C 2.2374 19.0107 2.1641 18.8342 2.169 18.6474 L 2.4479 7.8068 C 2.4604 7.3237 2.191 6.8635 1.7448 6.6056 C 1.0804 6.2215 0.6837 5.5527 0.6837 4.8163 C 0.6837 3.4563 1.2241 0.6479 2.8946 0.6479 C 4.5648 0.6479 5.1053 3.4563 5.1053 4.8163 C 5.1055 5.5527 4.7089 6.2215 4.0443 6.6056 L 4.0443 6.6056 ZM 4.0443 6.6056 L 4.0443 6.6056 Z" fill="#000000"/>
	</g>
</svg>