<?xml version="1.0" standalone="no"?>
<!-- Generator: Adobe Fireworks 10, Export SVG Extension by Aaron Beall (http://fireworks.abeall.com) . Version: 0.6.1  -->
<!DOCTYPE svg PUBLIC "-//W3C//DTD SVG 1.1//EN" "http://www.w3.org/Graphics/SVG/1.1/DTD/svg11.dtd">
<svg id="01%20-%20%u0433%u043B%u0430%u0432%u043D%u0430%u044F_1280-Page%201" viewBox="0 0 19 20" style="background-color:#ffffff" version="1.1"
	xmlns="http://www.w3.org/2000/svg" xmlns:xlink="http://www.w3.org/1999/xlink" xml:space="preserve"
	x="0px" y="0px" width="19px" height="20px"
>
	<g id="Layer%201">
		<rect x="-385" y="-41" width="920" height="670" fill="#f6f6f6"/>
		<g>
			<path d="M 12.1657 15.6034 L 6.724 15.6034 C 6.5712 15.6034 6.4473 15.7297 6.4473 15.885 C 6.4473 16.0409 6.5712 16.1666 6.724 16.1666 L 12.1657 16.1666 C 12.3183 16.1666 12.4423 16.0409 12.4423 15.885 C 12.4423 15.7297 12.3183 15.6034 12.1657 15.6034 L 12.1657 15.6034 ZM 12.1657 15.6034 L 12.1657 15.6034 Z" fill="#000000"/>
			<g>
				<g>
					<path d="M 12.1657 14.2957 L 6.724 14.2957 C 6.5712 14.2957 6.4473 14.4219 6.4473 14.5777 C 6.4473 14.7331 6.5712 14.8593 6.724 14.8593 L 12.1657 14.8593 C 12.3183 14.8593 12.4423 14.7331 12.4423 14.5777 C 12.4423 14.4219 12.3183 14.2957 12.1657 14.2957 L 12.1657 14.2957 ZM 12.1657 14.2957 L 12.1657 14.2957 Z" fill="#000000"/>
					<path d="M 17.7918 1.5577 L 17.7918 1.2943 C 17.7918 0.5808 17.2213 0 16.5204 0 L 2.4614 0 C 1.7605 0 1.19 0.5808 1.19 1.2943 L 1.19 1.5605 C 0.5206 1.6433 0 2.2245 0 2.928 L 0 8.1657 C 0 8.711 0.436 9.155 0.9719 9.155 L 1.19 9.155 L 1.19 16.481 C 1.19 17.2756 1.6234 17.9685 2.262 18.3285 L 2.262 19.7184 C 2.262 19.8739 2.386 20 2.5391 20 L 4.9602 20 C 5.1128 20 5.2367 19.8739 5.2367 19.7184 L 5.2367 18.5915 L 13.745 18.5915 L 13.745 19.7184 C 13.745 19.8739 13.869 20 14.0217 20 L 16.4428 20 C 16.5958 20 16.7198 19.8739 16.7198 19.7184 L 16.7198 18.3285 C 17.3585 17.9685 17.7918 17.2752 17.7918 16.481 L 17.7918 9.155 L 18.0283 9.155 C 18.564 9.155 19 8.711 19 8.1657 L 19 2.928 C 19 2.2179 18.47 1.632 17.7918 1.5577 L 17.7918 1.5577 ZM 18.4467 2.928 L 18.4467 3.6188 C 18.3198 3.5569 18.1783 3.5211 18.0283 3.5211 L 17.7918 3.5211 L 17.7918 2.1268 C 18.1637 2.1969 18.4467 2.5291 18.4467 2.928 L 18.4467 2.928 ZM 2.4614 0.5632 L 16.5204 0.5632 C 16.9164 0.5632 17.2385 0.8913 17.2385 1.2943 L 17.2385 1.8311 L 1.7432 1.8311 L 1.7432 1.2943 C 1.7432 0.8913 2.0655 0.5632 2.4614 0.5632 L 2.4614 0.5632 ZM 15.7511 16.0563 L 15.7511 14.8593 L 17.2385 14.8593 L 17.2385 16.0563 L 15.7511 16.0563 ZM 13.7106 16.0563 L 13.7106 14.8593 L 15.1978 14.8593 L 15.1978 16.0563 L 13.7106 16.0563 ZM 13.434 14.2957 C 13.281 14.2957 13.157 14.4219 13.157 14.5777 L 13.157 16.3383 C 13.157 16.6487 12.9088 16.9015 12.6038 16.9015 L 6.3781 16.9015 C 6.0731 16.9015 5.8248 16.6487 5.8248 16.3383 L 5.8248 14.5777 C 5.8248 14.4219 5.7009 14.2957 5.5478 14.2957 L 1.7432 14.2957 L 1.7432 13.0282 L 17.2385 13.0282 L 17.2385 14.2957 L 13.434 14.2957 ZM 1.7432 14.8593 L 3.2308 14.8593 L 3.2308 16.0563 L 1.7432 16.0563 L 1.7432 14.8593 ZM 3.784 14.8593 L 5.2712 14.8593 L 5.2712 16.0563 L 3.784 16.0563 L 3.784 14.8593 ZM 13.315 2.3943 L 9.6462 12.4651 L 5.0094 12.4651 L 8.6779 2.3943 L 13.315 2.3943 ZM 10.2367 12.4651 L 13.9051 2.3943 L 14.8337 2.3943 L 11.1649 12.4651 L 10.2367 12.4651 ZM 1.19 2.1302 L 1.19 3.5211 L 0.9719 3.5211 C 0.8221 3.5211 0.6802 3.5569 0.5537 3.6188 L 0.5537 2.928 C 0.5537 2.5357 0.8269 2.2076 1.19 2.1302 L 1.19 2.1302 ZM 0.5537 8.1657 L 0.5537 4.5104 C 0.5537 4.2756 0.7411 4.0847 0.9719 4.0847 L 2.0718 4.0847 C 2.3026 4.0847 2.4904 4.2756 2.4904 4.5104 L 2.4904 8.1657 C 2.4904 8.4006 2.3026 8.5918 2.0718 8.5918 L 0.9719 8.5918 C 0.7411 8.5918 0.5537 8.4006 0.5537 8.1657 L 0.5537 8.1657 ZM 2.0718 9.155 C 2.6079 9.155 3.0436 8.711 3.0436 8.1657 L 3.0436 4.5104 C 3.0436 3.9651 2.6079 3.5211 2.0718 3.5211 L 1.7432 3.5211 L 1.7432 2.3943 L 8.0879 2.3943 L 4.419 12.4651 L 1.7432 12.4651 L 1.7432 9.155 L 2.0718 9.155 ZM 4.6831 19.4368 L 2.8157 19.4368 L 2.8157 18.5417 C 2.9599 18.574 3.1096 18.5915 3.2632 18.5915 L 4.6831 18.5915 L 4.6831 19.4368 ZM 16.1662 19.4368 L 14.2986 19.4368 L 14.2986 18.5915 L 15.7186 18.5915 C 15.8723 18.5915 16.0219 18.574 16.1662 18.5417 L 16.1662 19.4368 ZM 15.7186 18.0283 L 3.2632 18.0283 C 2.471 18.0283 1.8189 17.408 1.7497 16.6198 L 5.3077 16.6198 C 5.431 17.1051 5.8637 17.4647 6.3781 17.4647 L 12.6038 17.4647 C 13.1185 17.4647 13.5508 17.1051 13.6741 16.6198 L 17.2321 16.6198 C 17.1629 17.408 16.5107 18.0283 15.7186 18.0283 L 15.7186 18.0283 ZM 17.2385 12.4651 L 11.7553 12.4651 L 15.4237 2.3943 L 17.2385 2.3943 L 17.2385 3.5211 L 16.9282 3.5211 C 16.3925 3.5211 15.9564 3.9651 15.9564 4.5104 L 15.9564 8.1657 C 15.9564 8.711 16.3925 9.155 16.9282 9.155 L 17.2385 9.155 L 17.2385 12.4651 ZM 18.4467 8.1657 C 18.4467 8.4006 18.259 8.5918 18.0283 8.5918 L 16.9282 8.5918 C 16.6974 8.5918 16.5096 8.4006 16.5096 8.1657 L 16.5096 4.5104 C 16.5096 4.2756 16.6974 4.0847 16.9282 4.0847 L 18.0283 4.0847 C 18.259 4.0847 18.4467 4.2756 18.4467 4.5104 L 18.4467 8.1657 ZM 18.4467 8.1657 L 18.4467 8.1657 Z" fill="#000000"/>
				</g>
			</g>
		</g>
	</g>
</svg>