<svg xmlns="http://www.w3.org/2000/svg" width="22" height="20" viewBox="0 0 22 20">
 
<path id="Composite_Path" data-name="Composite Path" class="cls-1" d="M701,51a1.243,1.243,0,0,0-.674-1.115l-1.638-.837,1.638-.837h0a1.259,1.259,0,0,0,0-2.23l-9.248-4.724a2.377,2.377,0,0,0-2.156,0l-9.248,4.724a1.259,1.259,0,0,0,0,2.23l1.638,0.837-1.638.837a1.259,1.259,0,0,0,0,2.23l1.638,0.837-1.638.837a1.259,1.259,0,0,0,0,2.23l9.248,4.724a2.378,2.378,0,0,0,2.156,0l9.248-4.724a1.259,1.259,0,0,0,0-2.23l-1.638-.837,1.638-.837A1.243,1.243,0,0,0,701,51Zm-20.873-3.712a0.215,0.215,0,0,1,0-.381l9.247-4.724a1.381,1.381,0,0,1,1.252,0l9.247,4.723a0.215,0.215,0,0,1,0,.381l-9.247,4.723a1.381,1.381,0,0,1-1.252,0Zm19.746,7.425a0.215,0.215,0,0,1,0,.381l-9.247,4.724a1.38,1.38,0,0,1-1.252,0l-9.247-4.723a0.215,0.215,0,0,1,0-.381l2.316-1.183,6.479,3.309a2.378,2.378,0,0,0,2.156,0l6.479-3.309Zm0-3.522-9.247,4.724a1.381,1.381,0,0,1-1.252,0l-9.247-4.723a0.215,0.215,0,0,1,0-.381l2.316-1.183,6.479,3.309a2.377,2.377,0,0,0,2.156,0l6.479-3.309,2.316,1.183A0.216,0.216,0,0,1,699.873,51.191Z" transform="translate(-679 -41)"/>

</svg>
