<?xml version="1.0" standalone="no"?>
<!-- Generator: Adobe Fireworks 10, Export SVG Extension by Aaron Beall (http://fireworks.abeall.com) . Version: 0.6.1  -->
<!DOCTYPE svg PUBLIC "-//W3C//DTD SVG 1.1//EN" "http://www.w3.org/Graphics/SVG/1.1/DTD/svg11.dtd">
<svg id="01%20-%20%u0433%u043B%u0430%u0432%u043D%u0430%u044F_1280-Page%201" viewBox="0 0 17 20" style="background-color:#ffffff" version="1.1"
	xmlns="http://www.w3.org/2000/svg" xmlns:xlink="http://www.w3.org/1999/xlink" xml:space="preserve"
	x="0px" y="0px" width="17px" height="20px"
>
	<rect x="-816" y="-41" width="920" height="670" fill="#f6f6f6"/>
	<g>
		<g>
			<path d="M 5.6363 4.2174 C 3.7536 4.2174 2.2224 5.6895 2.2224 7.5 C 2.2224 9.3106 3.7536 10.7829 5.6363 10.7829 C 7.519 10.7829 9.0503 9.3106 9.0503 7.5 C 9.0503 5.6895 7.519 4.2174 5.6363 4.2174 L 5.6363 4.2174 ZM 5.6363 10.0872 C 4.153 10.0872 2.9467 8.9268 2.9467 7.5 C 2.9467 6.0736 4.153 4.9134 5.6363 4.9134 C 7.1198 4.9134 8.3261 6.0736 8.3261 7.5 C 8.3261 8.9268 7.1198 10.0872 5.6363 10.0872 L 5.6363 10.0872 ZM 5.6363 10.0872 L 5.6363 10.0872 Z" fill="#231f20"/>
			<path d="M 16.9272 4.5482 C 16.5228 1.5729 14.5977 0 11.3638 0 C 8.2343 0 6.8674 1.2943 6.2703 2.4577 C 6.0654 2.444 5.8533 2.4355 5.6363 2.4355 C 2.4022 2.4355 0.4793 4.0081 0.0729 6.9837 C -0.0633 7.972 -0.0085 9.0355 0.2356 10.1445 C 1.4432 15.6491 4.3578 18.9486 5.2213 19.8284 C 5.329 19.9372 5.4808 20 5.6363 20 C 5.7919 20 5.9438 19.9372 6.0513 19.8284 C 6.6008 19.2682 7.9815 17.7227 9.2233 15.2546 C 10.0075 16.3932 10.6769 17.1149 10.9505 17.3929 C 11.0566 17.5033 11.2085 17.5667 11.3638 17.5667 C 11.5211 17.5667 11.673 17.5033 11.7789 17.3929 C 12.6426 16.5134 15.5566 13.2116 16.7648 7.7109 C 17.0084 6.5999 17.0632 5.5368 16.9272 4.5482 L 16.9272 4.5482 ZM 5.6363 19.2363 C 4.8468 18.4004 2.0795 15.18 0.9436 10.0016 C 0.7175 8.9691 0.6646 7.9844 0.79 7.0739 C 1.1467 4.4564 2.7771 3.1302 5.6363 3.1302 C 6.8317 3.1302 7.8102 3.3665 8.5734 3.8281 C 9.9527 4.7012 10.3624 6.2845 10.4825 7.1621 C 10.4985 7.276 10.5109 7.3913 10.5197 7.512 C 10.5214 7.5221 10.5214 7.5326 10.5233 7.5426 C 10.532 7.6566 10.5374 7.7718 10.5426 7.8942 C 10.5567 8.5671 10.4879 9.2718 10.3289 10.0016 C 9.1915 15.18 6.4257 18.4004 5.6363 19.2363 L 5.6363 19.2363 ZM 9.1827 3.3766 C 9.6631 2.7822 10.4737 2.4355 11.4169 2.4355 C 12.9004 2.4355 14.1067 3.5957 14.1067 5.0221 C 14.1067 6.4486 12.9004 7.6087 11.4169 7.6087 C 11.3621 7.6087 11.3091 7.6071 11.2526 7.6038 C 11.2402 7.3945 11.2261 7.1862 11.1978 6.9837 C 10.9753 5.3464 10.29 4.1374 9.1827 3.3766 L 9.1827 3.3766 ZM 16.0565 7.5664 C 14.921 12.7428 12.155 15.9648 11.3638 16.8001 C 11.0213 16.4385 10.3448 15.6644 9.5836 14.5062 C 10.1523 13.2546 10.6716 11.8021 11.0354 10.1445 C 11.1749 9.5111 11.2438 8.8962 11.2596 8.2982 C 11.3126 8.3001 11.3657 8.3053 11.4169 8.3053 C 13.2996 8.3053 14.8309 6.8327 14.8309 5.0221 C 14.8309 3.2116 13.2996 1.7389 11.4169 1.7389 C 10.2106 1.7389 9.1721 2.2148 8.5612 3.0215 C 8.1108 2.806 7.6053 2.6494 7.0474 2.5527 C 7.7925 1.3249 9.2374 0.6966 11.3638 0.6966 C 14.2232 0.6966 15.8529 2.0228 16.2102 4.64 C 16.3355 5.5485 16.2844 6.5339 16.0565 7.5664 L 16.0565 7.5664 ZM 16.0565 7.5664 L 16.0565 7.5664 Z" fill="#231f20"/>
		</g>
	</g>
</svg>