<?xml version="1.0" standalone="no"?>
<!-- Generator: Adobe Fireworks 10, Export SVG Extension by Aaron Beall (http://fireworks.abeall.com) . Version: 0.6.1  -->
<!DOCTYPE svg PUBLIC "-//W3C//DTD SVG 1.1//EN" "http://www.w3.org/Graphics/SVG/1.1/DTD/svg11.dtd">
<svg id="01%20-%20%u0433%u043B%u0430%u0432%u043D%u0430%u044F_1280-Page%201" viewBox="0 0 55 16" style="background-color:#ffffff" version="1.1"
	xmlns="http://www.w3.org/2000/svg" xmlns:xlink="http://www.w3.org/1999/xlink" xml:space="preserve"
	x="0px" y="0px" width="55px" height="16px"
>
	<g id="Layer%201">
		<g>
			<path d="M 0 3.9663 L 17.7499 3.9663 L 17.7499 0.0078 L 0 0.0078 L 0 3.9663 Z" fill="#f9bd32"/>
			<path d="M 0 9.9072 L 17.7499 9.9072 L 17.7499 5.9517 L 0 5.9517 L 0 9.9072 Z" fill="#ff791a"/>
			<path d="M 0 14.8433 L 17.7499 14.8433 L 17.7499 10.8882 L 0 10.8882 L 0 14.8433 Z" fill="#ff2f0b"/>
			<path d="M 23.6627 0.0117 L 23.658 15.8433 L 36.6038 15.8433 L 36.6038 13.0503 L 27.429 13.0439 L 27.429 9.2749 L 36.6038 9.2749 L 36.6038 6.4541 L 27.429 6.4541 L 27.429 2.8369 L 36.6038 2.8267 L 36.6038 0.0117 L 36.6038 0.0117 " fill="#000000"/>
			<path d="M 43.4517 2.853 L 43.4517 6.5137 L 48.465 6.5137 C 49.2111 6.5137 49.7608 6.3594 50.1129 6.0728 C 50.4647 5.7642 50.64 5.3003 50.64 4.6831 C 50.64 4.0439 50.4647 3.5811 50.1129 3.2935 C 49.7608 3.0063 49.2111 2.853 48.465 2.853 L 48.465 2.853 M 48.5095 13.043 C 49.2782 13.043 49.8275 12.8882 50.1566 12.6006 C 50.5088 12.292 50.6844 11.8291 50.6844 11.167 C 50.6844 10.5273 50.5088 10.064 50.1566 9.7783 C 49.8053 9.4688 49.256 9.3145 48.5095 9.3145 L 43.4517 9.3145 L 43.4517 13.043 L 48.5095 13.043 ZM 48.9706 15.8433 L 40.1343 15.8433 L 40.1343 0.0078 L 48.3763 0.0078 C 49.4102 0.0078 50.2441 0.0747 50.9043 0.2075 C 51.5411 0.3159 52.0459 0.4932 52.4418 0.7358 C 53.0129 1.1104 53.4525 1.5742 53.7594 2.1685 C 54.0682 2.7437 54.2217 3.4033 54.2217 4.1313 C 54.2217 5.0142 54.0229 5.7642 53.6501 6.3818 C 53.2757 6.998 52.683 7.5059 51.8928 7.9268 C 52.7045 8.2783 53.2995 8.7412 53.6704 9.3145 C 54.0682 9.9102 54.2665 10.6377 54.2665 11.542 C 54.2665 13.0195 53.8262 14.1006 52.9915 14.7842 C 52.1349 15.4893 50.7954 15.8433 48.9706 15.8433 L 48.9706 15.8433 Z" fill="#000000"/>
		</g>
	</g>
</svg>