<?xml version="1.0" standalone="no"?>
<!-- Generator: Adobe Fireworks 10, Export SVG Extension by Aaron Beall (http://fireworks.abeall.com) . Version: 0.6.1  -->
<!DOCTYPE svg PUBLIC "-//W3C//DTD SVG 1.1//EN" "http://www.w3.org/Graphics/SVG/1.1/DTD/svg11.dtd">
<svg id="01%20-%20%u0433%u043B%u0430%u0432%u043D%u0430%u044F_1280-Page%201" viewBox="0 0 69 20" style="background-color:#ffffff" version="1.1"
	xmlns="http://www.w3.org/2000/svg" xmlns:xlink="http://www.w3.org/1999/xlink" xml:space="preserve"
	x="0px" y="0px" width="69px" height="20px"
>
	<g id="Layer%201">
		<rect x="-105" y="-41" width="920" height="670" fill="#f6f6f6"/>
		<g>
			<path d="M 0 5.0072 L 22.415 5.0072 L 22.415 0.0096 L 0 0.0096 L 0 5.0072 Z" fill="#f9bd32"/>
			<path d="M 0 12.5066 L 22.415 12.5066 L 22.415 7.5129 L 0 7.5129 L 0 12.5066 Z" fill="#ff791a"/>
			<path d="M 0 20 L 22.415 20 L 22.415 15.0074 L 0 15.0074 L 0 20 Z" fill="#ff2f0b"/>
			<path d="M 29.8819 0.0146 L 29.876 20 L 46.2243 20 L 46.2243 16.4742 L 34.6382 16.4663 L 34.6382 11.7081 L 46.2243 11.7081 L 46.2243 8.1477 L 34.6382 8.1477 L 34.6382 3.581 L 46.2243 3.5681 L 46.2243 0.0146 L 46.2243 0.0146 " fill="#000000"/>
			<path d="M 54.872 3.6017 L 54.872 8.2224 L 61.203 8.2224 C 62.1452 8.2224 62.8394 8.0279 63.284 7.6663 C 63.7283 7.2765 63.9496 6.6912 63.9496 5.9121 C 63.9496 5.1047 63.7283 4.5209 63.284 4.1578 C 62.8394 3.7952 62.1452 3.6017 61.203 3.6017 L 61.203 3.6017 M 61.2592 16.4648 C 62.23 16.4648 62.9237 16.2694 63.3392 15.9067 C 63.784 15.5169 64.0058 14.9326 64.0058 14.0966 C 64.0058 13.2892 63.784 12.7045 63.3392 12.3438 C 62.8955 11.953 62.2018 11.7586 61.2592 11.7586 L 54.872 11.7586 L 54.872 16.4648 L 61.2592 16.4648 ZM 61.8414 20 L 50.6827 20 L 50.6827 0.0096 L 61.0911 0.0096 C 62.3966 0.0096 63.4497 0.0942 64.2834 0.2619 C 65.0875 0.399 65.725 0.6226 66.225 0.9288 C 66.9463 1.4017 67.5014 1.987 67.8889 2.7375 C 68.2789 3.4632 68.4727 4.2963 68.4727 5.215 C 68.4727 6.3296 68.2217 7.2765 67.7509 8.0561 C 67.2781 8.8343 66.5296 9.475 65.5318 10.0063 C 66.5567 10.4501 67.3081 11.0348 67.7765 11.7586 C 68.2789 12.51 68.5294 13.4287 68.5294 14.57 C 68.5294 16.4356 67.9732 17.8 66.9191 18.6633 C 65.8374 19.5533 64.1459 20 61.8414 20 L 61.8414 20 Z" fill="#000000"/>
		</g>
	</g>
</svg>