<?xml version="1.0" standalone="no"?>
<!-- Generator: Adobe Fireworks 10, Export SVG Extension by Aaron Beall (http://fireworks.abeall.com) . Version: 0.6.1  -->
<!DOCTYPE svg PUBLIC "-//W3C//DTD SVG 1.1//EN" "http://www.w3.org/Graphics/SVG/1.1/DTD/svg11.dtd">
<svg id="01%20-%20%u0433%u043B%u0430%u0432%u043D%u0430%u044F_1280-Page%201" viewBox="0 0 14 20" style="background-color:#ffffff" version="1.1"
	xmlns="http://www.w3.org/2000/svg" xmlns:xlink="http://www.w3.org/1999/xlink" xml:space="preserve"
	x="0px" y="0px" width="14px" height="20px"
>
	<g>
		<g>
			<path d="M 7.0656 4.384 C 5.6561 4.384 4.5097 5.5309 4.5097 6.9399 C 4.5097 8.3502 5.6561 9.4972 7.0656 9.4972 C 8.474 9.4972 9.6202 8.3502 9.6202 6.9399 C 9.6202 5.5309 8.474 4.384 7.0656 4.384 L 7.0656 4.384 ZM 7.0656 8.7662 C 6.0585 8.7662 5.2403 7.9476 5.2403 6.9399 C 5.2403 5.9336 6.0585 5.1136 7.0656 5.1136 C 8.0712 5.1136 8.8911 5.9336 8.8911 6.9399 C 8.8911 7.9476 8.0712 8.7662 7.0656 8.7662 L 7.0656 8.7662 ZM 7.0656 8.7662 L 7.0656 8.7662 Z" fill="#231f20"/>
			<path d="M 11.9517 2.0515 C 10.629 0.7297 8.8715 0 7.0016 0 C 5.13 0 3.3727 0.7297 2.0498 2.0515 C -0.3958 4.4999 -0.7006 9.1048 1.3921 11.8959 L 7.0016 20 L 12.6005 11.9071 C 14.7021 9.1048 14.3973 4.4999 11.9517 2.0515 L 11.9517 2.0515 ZM 12.0087 11.4804 L 7.0016 18.7177 L 1.9841 11.4697 C 0.087 8.9374 0.3582 4.7781 2.5668 2.5682 C 3.7524 1.3844 5.3261 0.7314 7.0016 0.7314 C 8.6754 0.7314 10.2494 1.3844 11.4348 2.5682 C 13.6432 4.7781 13.916 8.9374 12.0087 11.4804 L 12.0087 11.4804 ZM 12.0087 11.4804 L 12.0087 11.4804 Z" fill="#231f20"/>
		</g>
	</g>
</svg>