<?xml version="1.0" standalone="no"?>
<!-- Generator: Adobe Fireworks 10, Export SVG Extension by Aaron Beall (http://fireworks.abeall.com) . Version: 0.6.1  -->
<!DOCTYPE svg PUBLIC "-//W3C//DTD SVG 1.1//EN" "http://www.w3.org/Graphics/SVG/1.1/DTD/svg11.dtd">
<svg id="01%20-%20%u0433%u043B%u0430%u0432%u043D%u0430%u044F_1280-Page%201" viewBox="0 0 27 21" style="background-color:#ffffff" version="1.1"
	xmlns="http://www.w3.org/2000/svg" xmlns:xlink="http://www.w3.org/1999/xlink" xml:space="preserve"
	x="0px" y="0px" width="27px" height="21px"
>
	<defs>
		<clipPath id="mask1">
			<path d="M 0 0.0001 L 26.0569 0.0001 L 26.0569 20.0096 L 0 20.0096 L 0 0.0001 Z" fill="none"/>
		</clipPath>
	</defs>
	<g>
			<path d="M 0 0.0001 L 26.0569 0.0001 L 26.0569 20.0096 L 0 20.0096 L 0 0.0001 Z" fill="none"/>
		<path clip-path="url(#mask1)" d="M 25.4944 12.2532 C 25.1733 12.0787 24.7656 12.1171 24.3759 12.3582 L 17.179 16.8129 C 16.9789 16.9369 16.9186 17.1968 17.0447 17.3937 C 17.1708 17.5907 17.4357 17.6497 17.6357 17.5257 L 24.8326 13.0712 C 24.9847 12.9772 25.0678 12.9841 25.0801 12.9906 C 25.0927 12.9975 25.1429 13.0627 25.1429 13.2394 C 25.1429 13.7138 24.7846 14.3521 24.3759 14.6049 L 17.399 18.9233 C 17.028 19.1528 16.6887 19.2159 16.4685 19.0966 C 16.2482 18.9771 16.1218 18.6611 16.1218 18.2302 C 16.1218 17.1384 16.9158 15.7247 17.8558 15.1429 L 25.7999 10.2259 C 25.9244 10.1488 26 10.0142 26 9.8693 C 26 9.7249 25.9244 9.5902 25.7999 9.5128 L 10.5353 0.0648 C 10.3955 -0.0216 10.2181 -0.0216 10.0786 0.0648 L 2.0376 5.0416 C 0.8951 5.749 0 7.3427 0 8.6697 L 0 8.8943 C 0 10.2217 0.8951 11.8154 2.0376 12.5225 L 13.9971 19.9249 C 14.1974 20.0488 14.4619 19.9899 14.588 19.7929 C 14.7141 19.596 14.6542 19.3361 14.4538 19.2121 L 2.4944 11.8097 C 1.6068 11.2604 0.8571 9.9253 0.8571 8.8943 L 0.8571 8.6697 C 0.8571 7.6389 1.6068 6.3041 2.4944 5.7548 L 10.3068 0.9191 L 24.767 9.8693 L 17.399 14.4299 C 16.2021 15.1707 15.2646 16.84 15.2646 18.2302 C 15.2646 18.9883 15.545 19.5579 16.0542 19.8341 C 16.2588 19.9451 16.4842 20 16.7233 20 C 17.0793 20 17.4652 19.8779 17.8556 19.6364 L 24.8326 15.3179 C 25.4872 14.9126 26 13.9999 26 13.2394 C 26 12.7869 25.8159 12.4276 25.4944 12.2532 L 25.4944 12.2532 ZM 25.4944 12.2532 L 25.4944 12.2532 Z" fill="#000000"/>
		<path d="M 20.209 10.2906 C 20.3516 10.2906 20.4908 10.2209 20.5723 10.0939 C 20.6984 9.8971 20.6382 9.6368 20.4379 9.5128 L 10.5353 3.3835 C 10.335 3.2596 10.0702 3.3188 9.9441 3.5157 C 9.818 3.7126 9.8782 3.9726 10.0786 4.0966 L 19.9811 10.2259 C 20.0522 10.2698 20.1312 10.2906 20.209 10.2906 L 20.209 10.2906 ZM 20.209 10.2906 L 20.209 10.2906 Z" fill="#000000"/>
		<path d="M 18.4959 11.4088 C 18.6385 11.4088 18.778 11.3385 18.8592 11.211 C 18.985 11.0141 18.9244 10.7541 18.7239 10.6304 L 14.5403 8.0521 C 14.3397 7.9285 14.0754 7.9882 13.9496 8.1852 C 13.8238 8.3823 13.8846 8.6424 14.0852 8.7657 L 18.2685 11.3443 C 18.3394 11.3879 18.4181 11.4088 18.4959 11.4088 L 18.4959 11.4088 ZM 18.4959 11.4088 L 18.4959 11.4088 Z" fill="#000000"/>
		<path d="M 12.7942 9.1606 C 12.5936 9.0375 12.3291 9.0976 12.2038 9.295 C 12.0786 9.4926 12.1396 9.7523 12.3403 9.8754 L 16.5559 12.4627 C 16.6265 12.506 16.7049 12.5266 16.7825 12.5266 C 16.9253 12.5266 17.0651 12.4564 17.1466 12.3283 C 17.2719 12.1311 17.2108 11.8712 17.0099 11.748 L 12.7942 9.1606 ZM 12.7942 9.1606 L 12.7942 9.1606 Z" fill="#000000"/>
		<path d="M 8.2976 4.486 L 4.736 6.6908 C 4.611 6.7681 4.5354 6.9033 4.5356 7.0483 C 4.5363 7.1938 4.6127 7.3284 4.7379 7.4052 L 8.9857 10.001 C 9.0549 10.0435 9.1335 10.0646 9.212 10.0646 C 9.2929 10.0646 9.3738 10.0421 9.4447 9.9971 L 10.3905 9.396 C 10.5895 9.2698 10.6464 9.009 10.518 8.8137 C 10.3894 8.6182 10.124 8.5623 9.9254 8.6884 L 9.2075 9.1445 L 5.7722 7.0451 L 8.5264 5.34 L 11.9117 7.4266 L 11.5172 7.6772 C 11.3182 7.8036 11.2614 8.0642 11.39 8.2597 C 11.5183 8.4551 11.7837 8.5109 11.9823 8.3848 L 12.9424 7.7749 C 13.0654 7.6967 13.1394 7.5624 13.1382 7.4181 C 13.1375 7.2744 13.0615 7.1408 12.9374 7.0643 L 8.7535 4.4857 C 8.6141 4.3997 8.4369 4.3999 8.2976 4.486 L 8.2976 4.486 ZM 8.2976 4.486 L 8.2976 4.486 Z" fill="#000000"/>
		<path d="M 15.4334 13.4456 C 15.5584 13.2479 15.4968 12.9882 15.2959 12.8655 L 11.0482 10.2695 C 10.8469 10.1464 10.5828 10.207 10.4578 10.4047 C 10.3328 10.6022 10.3944 10.8619 10.5956 10.9847 L 14.8433 13.5808 C 14.9136 13.6239 14.9921 13.6445 15.069 13.6445 C 15.2125 13.6445 15.3522 13.574 15.4334 13.4456 L 15.4334 13.4456 ZM 15.4334 13.4456 L 15.4334 13.4456 Z" fill="#000000"/>
		<path d="M 3.0585 8.0546 C 2.9335 8.2521 2.9952 8.5118 3.1964 8.6346 L 13.6807 15.0423 C 13.751 15.0854 13.8293 15.106 13.9067 15.106 C 14.0498 15.106 14.1898 15.0355 14.2708 14.9071 C 14.3958 14.7094 14.3341 14.4496 14.1332 14.3268 L 3.6489 7.9191 C 3.4478 7.7963 3.1835 7.8569 3.0585 8.0546 L 3.0585 8.0546 ZM 3.0585 8.0546 L 3.0585 8.0546 Z" fill="#000000"/>
	</g>
</svg>