<svg xmlns="http://www.w3.org/2000/svg" xmlns:xlink="http://www.w3.org/1999/xlink"><defs>
		<clipPath id="mask1">
			<path d="M 0 0.0001 L 26.0569 0.0001 L 26.0569 20.0096 L 0 20.0096 L 0 0.0001 Z" fill="none"/>
		</clipPath>
	</defs><symbol id="activities__icon--report" viewBox="0 0 24 31">
	<g>
		<path d="M 18.1912 11.4847 L 5.5588 11.4847 C 5.2797 11.4847 5.053 11.707 5.053 11.9832 C 5.053 12.2623 5.2797 12.4849 5.5588 12.4849 L 18.1912 12.4849 C 18.47 12.4849 18.6969 12.2623 18.6969 11.9832 C 18.6969 11.707 18.47 11.4847 18.1912 11.4847 L 18.1912 11.4847 ZM 18.1912 11.4847 L 18.1912 11.4847 Z" fill="#000000"/>
		<path d="M 5.5588 8.4785 L 10.6117 8.4785 C 10.8905 8.4785 11.1177 8.2532 11.1177 7.9771 C 11.1177 7.701 10.8905 7.4756 10.6117 7.4756 L 5.5588 7.4756 C 5.2797 7.4756 5.053 7.701 5.053 7.9771 C 5.053 8.2532 5.2797 8.4785 5.5588 8.4785 L 5.5588 8.4785 ZM 5.5588 8.4785 L 5.5588 8.4785 Z" fill="#000000"/>
		<path d="M 18.1912 15.4908 L 5.5588 15.4908 C 5.2797 15.4908 5.053 15.7158 5.053 15.9922 C 5.053 16.2686 5.2797 16.4937 5.5588 16.4937 L 18.1912 16.4937 C 18.47 16.4937 18.6969 16.2686 18.6969 15.9922 C 18.6969 15.7158 18.47 15.4908 18.1912 15.4908 L 18.1912 15.4908 ZM 18.1912 15.4908 L 18.1912 15.4908 Z" fill="#000000"/>
		<path d="M 18.1912 19.4972 L 5.5588 19.4972 C 5.2797 19.4972 5.053 19.7222 5.053 19.9986 C 5.053 20.275 5.2797 20.5 5.5588 20.5 L 18.1912 20.5 C 18.47 20.5 18.6969 20.275 18.6969 19.9986 C 18.6969 19.7222 18.47 19.4972 18.1912 19.4972 L 18.1912 19.4972 ZM 18.1912 19.4972 L 18.1912 19.4972 Z" fill="#000000"/>
		<path d="M 18.1912 23.506 L 5.5588 23.506 C 5.2797 23.506 5.053 23.7286 5.053 24.0074 C 5.053 24.2838 5.2797 24.5063 5.5588 24.5063 L 18.1912 24.5063 C 18.47 24.5063 18.6969 24.2838 18.6969 24.0074 C 18.6969 23.7286 18.47 23.506 18.1912 23.506 L 18.1912 23.506 ZM 18.1912 23.506 L 18.1912 23.506 Z" fill="#000000"/>
		<path d="M 16.3777 0.4633 L 0 0.4633 L 0 30.5183 L 23.75 30.5183 L 23.75 7.7692 L 16.3777 0.4633 ZM 16.6738 2.1727 L 22.0228 7.4756 L 16.6738 7.4756 L 16.6738 2.1727 ZM 1.0118 29.5155 L 1.0118 1.4664 L 15.6648 1.4664 L 15.6648 8.4785 L 22.7383 8.4785 L 22.7383 29.5155 L 1.0118 29.5155 ZM 1.0118 29.5155 L 1.0118 29.5155 Z" fill="#000000"/>
	</g>
</symbol><symbol id="activities__icon--urgent" viewBox="0 0 30 31">
	<g>
		<path d="M 15 0 C 6.7296 0 0 6.7419 0 15.0279 C 0 23.3131 6.7296 30.0551 15 30.0551 C 23.2704 30.0551 30 23.3131 30 15.0279 C 30 6.7419 23.2704 0 15 0 L 15 0 ZM 15 28.898 C 7.3662 28.898 1.1554 22.6753 1.1554 15.0279 C 1.1554 7.3797 7.3662 1.1574 15 1.1574 C 22.6338 1.1574 28.8451 7.3797 28.8451 15.0279 C 28.8451 22.6753 22.6338 28.898 15 28.898 L 15 28.898 ZM 15 28.898 L 15 28.898 Z" fill="#ee2d24"/>
		<path d="M 15 5.7796 C 14.6814 5.7796 14.4226 6.0389 14.4226 6.3585 L 14.4226 19.0715 C 14.4226 19.3932 14.6814 19.6501 15 19.6501 C 15.3184 19.6501 15.5774 19.3932 15.5774 19.0715 L 15.5774 6.3585 C 15.5774 6.0389 15.3184 5.7796 15 5.7796 L 15 5.7796 ZM 15 5.7796 L 15 5.7796 Z" fill="#ee2d24"/>
		<path d="M 15 21.3856 C 14.6814 21.3856 14.4226 21.6425 14.4226 21.9614 L 14.4226 23.1184 C 14.4226 23.4373 14.6814 23.6969 15 23.6969 C 15.3184 23.6969 15.5774 23.4373 15.5774 23.1184 L 15.5774 21.9614 C 15.5774 21.6425 15.3184 21.3856 15 21.3856 L 15 21.3856 ZM 15 21.3856 L 15 21.3856 Z" fill="#ee2d24"/>
	</g>
</symbol><symbol id="corporate-info__icon--video" viewBox="0 0 36 24">
	<rect x="-452" y="-238" width="920" height="670" fill="#f6f6f6"/>
	<image x="0" y="0" width="36" height="24" xlink:href="corporate-info__icon--video.svg.images/image1.png"/>
	<g>
		<path d="M 35.5 5.1273 C 35.5 2.2951 33.1587 0 30.2686 0 L 5.7316 0 C 2.8411 0 0.5 2.2951 0.5 5.1273 L 0.5 18.8736 C 0.5 21.7046 2.8411 24 5.7316 24 L 30.2686 24 C 33.1587 24 35.5 21.7046 35.5 18.8736 L 35.5 5.1273 ZM 14.5004 17.8002 L 14.5004 4.8891 L 24.4961 11.3429 L 14.5004 17.8002 ZM 14.5004 17.8002 L 14.5004 17.8002 Z" fill="#ffffff"/>
	</g>
</symbol><symbol id="corporate__icon--bus" viewBox="0 0 19 20">
	<g id="Layer%201">
		<rect x="-385" y="-41" width="920" height="670" fill="#f6f6f6"/>
		<g>
			<path d="M 12.1657 15.6034 L 6.724 15.6034 C 6.5712 15.6034 6.4473 15.7297 6.4473 15.885 C 6.4473 16.0409 6.5712 16.1666 6.724 16.1666 L 12.1657 16.1666 C 12.3183 16.1666 12.4423 16.0409 12.4423 15.885 C 12.4423 15.7297 12.3183 15.6034 12.1657 15.6034 L 12.1657 15.6034 ZM 12.1657 15.6034 L 12.1657 15.6034 Z" fill="#000000"/>
			<g>
				<g>
					<path d="M 12.1657 14.2957 L 6.724 14.2957 C 6.5712 14.2957 6.4473 14.4219 6.4473 14.5777 C 6.4473 14.7331 6.5712 14.8593 6.724 14.8593 L 12.1657 14.8593 C 12.3183 14.8593 12.4423 14.7331 12.4423 14.5777 C 12.4423 14.4219 12.3183 14.2957 12.1657 14.2957 L 12.1657 14.2957 ZM 12.1657 14.2957 L 12.1657 14.2957 Z" fill="#000000"/>
					<path d="M 17.7918 1.5577 L 17.7918 1.2943 C 17.7918 0.5808 17.2213 0 16.5204 0 L 2.4614 0 C 1.7605 0 1.19 0.5808 1.19 1.2943 L 1.19 1.5605 C 0.5206 1.6433 0 2.2245 0 2.928 L 0 8.1657 C 0 8.711 0.436 9.155 0.9719 9.155 L 1.19 9.155 L 1.19 16.481 C 1.19 17.2756 1.6234 17.9685 2.262 18.3285 L 2.262 19.7184 C 2.262 19.8739 2.386 20 2.5391 20 L 4.9602 20 C 5.1128 20 5.2367 19.8739 5.2367 19.7184 L 5.2367 18.5915 L 13.745 18.5915 L 13.745 19.7184 C 13.745 19.8739 13.869 20 14.0217 20 L 16.4428 20 C 16.5958 20 16.7198 19.8739 16.7198 19.7184 L 16.7198 18.3285 C 17.3585 17.9685 17.7918 17.2752 17.7918 16.481 L 17.7918 9.155 L 18.0283 9.155 C 18.564 9.155 19 8.711 19 8.1657 L 19 2.928 C 19 2.2179 18.47 1.632 17.7918 1.5577 L 17.7918 1.5577 ZM 18.4467 2.928 L 18.4467 3.6188 C 18.3198 3.5569 18.1783 3.5211 18.0283 3.5211 L 17.7918 3.5211 L 17.7918 2.1268 C 18.1637 2.1969 18.4467 2.5291 18.4467 2.928 L 18.4467 2.928 ZM 2.4614 0.5632 L 16.5204 0.5632 C 16.9164 0.5632 17.2385 0.8913 17.2385 1.2943 L 17.2385 1.8311 L 1.7432 1.8311 L 1.7432 1.2943 C 1.7432 0.8913 2.0655 0.5632 2.4614 0.5632 L 2.4614 0.5632 ZM 15.7511 16.0563 L 15.7511 14.8593 L 17.2385 14.8593 L 17.2385 16.0563 L 15.7511 16.0563 ZM 13.7106 16.0563 L 13.7106 14.8593 L 15.1978 14.8593 L 15.1978 16.0563 L 13.7106 16.0563 ZM 13.434 14.2957 C 13.281 14.2957 13.157 14.4219 13.157 14.5777 L 13.157 16.3383 C 13.157 16.6487 12.9088 16.9015 12.6038 16.9015 L 6.3781 16.9015 C 6.0731 16.9015 5.8248 16.6487 5.8248 16.3383 L 5.8248 14.5777 C 5.8248 14.4219 5.7009 14.2957 5.5478 14.2957 L 1.7432 14.2957 L 1.7432 13.0282 L 17.2385 13.0282 L 17.2385 14.2957 L 13.434 14.2957 ZM 1.7432 14.8593 L 3.2308 14.8593 L 3.2308 16.0563 L 1.7432 16.0563 L 1.7432 14.8593 ZM 3.784 14.8593 L 5.2712 14.8593 L 5.2712 16.0563 L 3.784 16.0563 L 3.784 14.8593 ZM 13.315 2.3943 L 9.6462 12.4651 L 5.0094 12.4651 L 8.6779 2.3943 L 13.315 2.3943 ZM 10.2367 12.4651 L 13.9051 2.3943 L 14.8337 2.3943 L 11.1649 12.4651 L 10.2367 12.4651 ZM 1.19 2.1302 L 1.19 3.5211 L 0.9719 3.5211 C 0.8221 3.5211 0.6802 3.5569 0.5537 3.6188 L 0.5537 2.928 C 0.5537 2.5357 0.8269 2.2076 1.19 2.1302 L 1.19 2.1302 ZM 0.5537 8.1657 L 0.5537 4.5104 C 0.5537 4.2756 0.7411 4.0847 0.9719 4.0847 L 2.0718 4.0847 C 2.3026 4.0847 2.4904 4.2756 2.4904 4.5104 L 2.4904 8.1657 C 2.4904 8.4006 2.3026 8.5918 2.0718 8.5918 L 0.9719 8.5918 C 0.7411 8.5918 0.5537 8.4006 0.5537 8.1657 L 0.5537 8.1657 ZM 2.0718 9.155 C 2.6079 9.155 3.0436 8.711 3.0436 8.1657 L 3.0436 4.5104 C 3.0436 3.9651 2.6079 3.5211 2.0718 3.5211 L 1.7432 3.5211 L 1.7432 2.3943 L 8.0879 2.3943 L 4.419 12.4651 L 1.7432 12.4651 L 1.7432 9.155 L 2.0718 9.155 ZM 4.6831 19.4368 L 2.8157 19.4368 L 2.8157 18.5417 C 2.9599 18.574 3.1096 18.5915 3.2632 18.5915 L 4.6831 18.5915 L 4.6831 19.4368 ZM 16.1662 19.4368 L 14.2986 19.4368 L 14.2986 18.5915 L 15.7186 18.5915 C 15.8723 18.5915 16.0219 18.574 16.1662 18.5417 L 16.1662 19.4368 ZM 15.7186 18.0283 L 3.2632 18.0283 C 2.471 18.0283 1.8189 17.408 1.7497 16.6198 L 5.3077 16.6198 C 5.431 17.1051 5.8637 17.4647 6.3781 17.4647 L 12.6038 17.4647 C 13.1185 17.4647 13.5508 17.1051 13.6741 16.6198 L 17.2321 16.6198 C 17.1629 17.408 16.5107 18.0283 15.7186 18.0283 L 15.7186 18.0283 ZM 17.2385 12.4651 L 11.7553 12.4651 L 15.4237 2.3943 L 17.2385 2.3943 L 17.2385 3.5211 L 16.9282 3.5211 C 16.3925 3.5211 15.9564 3.9651 15.9564 4.5104 L 15.9564 8.1657 C 15.9564 8.711 16.3925 9.155 16.9282 9.155 L 17.2385 9.155 L 17.2385 12.4651 ZM 18.4467 8.1657 C 18.4467 8.4006 18.259 8.5918 18.0283 8.5918 L 16.9282 8.5918 C 16.6974 8.5918 16.5096 8.4006 16.5096 8.1657 L 16.5096 4.5104 C 16.5096 4.2756 16.6974 4.0847 16.9282 4.0847 L 18.0283 4.0847 C 18.259 4.0847 18.4467 4.2756 18.4467 4.5104 L 18.4467 8.1657 ZM 18.4467 8.1657 L 18.4467 8.1657 Z" fill="#000000"/>
				</g>
			</g>
		</g>
	</g>
</symbol><symbol id="corporate__icon--canteen" viewBox="0 0 16 20">
	<rect x="-533" y="-41" width="920" height="670" fill="#f6f6f6"/>
	<g>
		<g>
			<g>
				<path d="M 14.8778 0 L 14.8762 0 C 14.3213 0 13.8437 0.3925 13.7653 0.9131 L 12.1307 11.756 C 12.0528 12.2727 12.3969 12.7579 12.9313 12.8844 L 13.4793 13.0142 L 13.1846 18.5984 C 13.165 18.9671 13.3024 19.3175 13.5708 19.5851 C 13.8394 19.8526 14.2018 19.9998 14.5913 19.9998 C 15.3681 19.9998 16 19.401 16 18.6651 L 16 1.0634 C 16 0.4771 15.4965 0 14.8778 0 L 14.8778 0 ZM 15.3163 18.6651 C 15.3163 19.0438 14.9911 19.3518 14.5913 19.3518 C 14.3909 19.3518 14.2045 19.2761 14.0663 19.1383 C 13.928 19.0009 13.8575 18.8205 13.8675 18.6307 L 14.1762 12.7806 C 14.1842 12.626 14.076 12.4877 13.9175 12.4501 L 13.0972 12.2559 C 12.9037 12.2101 12.7793 12.0346 12.8076 11.8478 L 14.4422 1.0046 C 14.4727 0.8013 14.6594 0.6479 14.8762 0.6479 L 14.8778 0.6479 C 15.1195 0.6479 15.3163 0.8344 15.3163 1.0634 L 15.3163 18.6651 ZM 15.3163 18.6651 L 15.3163 18.6651 Z" fill="#000000"/>
			</g>
		</g>
		<path d="M 10.5295 0.3077 C 10.5201 0.1291 10.3593 -0.0082 10.1709 0.0004 C 9.9824 0.0093 9.837 0.1613 9.8466 0.3402 L 10.1387 5.8747 L 9.0712 5.8747 L 9.0712 0.324 C 9.0712 0.1451 8.918 0 8.7293 0 C 8.5405 0 8.3874 0.1451 8.3874 0.324 L 8.3874 5.8747 L 7.3201 5.8747 L 7.6119 0.3402 C 7.6215 0.1615 7.4761 0.0093 7.2876 0.0004 C 7.0991 -0.0086 6.9386 0.1291 6.9291 0.3077 L 6.5851 6.8273 C 6.5665 7.1824 6.7487 7.5253 7.0609 7.7226 L 7.4739 7.9835 C 7.5859 8.0544 7.6503 8.1725 7.6462 8.2999 L 7.3239 18.6307 C 7.3133 18.9933 7.4546 19.3364 7.7215 19.5965 C 7.9883 19.8565 8.3462 20 8.7293 20 C 9.1123 20 9.4702 19.8565 9.7371 19.5965 C 10.004 19.3364 10.1453 18.9933 10.1346 18.63 L 9.8124 8.2999 C 9.8083 8.1725 9.8729 8.0544 9.9846 7.9835 L 10.3978 7.7226 C 10.7098 7.5253 10.8921 7.1824 10.8734 6.8273 L 10.5295 0.3077 ZM 10.0184 7.1835 L 9.6053 7.4444 C 9.296 7.6399 9.1179 7.9668 9.1288 8.319 L 9.4513 18.6486 C 9.4567 18.8348 9.3841 19.0112 9.247 19.1447 C 9.1099 19.2782 8.9261 19.3518 8.7293 19.3518 C 8.5327 19.3518 8.3489 19.2782 8.2115 19.1447 C 8.0744 19.0112 8.0021 18.8348 8.0074 18.6493 L 8.3297 8.319 C 8.3409 7.9668 8.1626 7.6399 7.8532 7.4444 L 7.4401 7.1835 C 7.3273 7.1122 7.2614 6.988 7.2682 6.8595 L 7.2858 6.5227 L 10.1729 6.5227 L 10.1905 6.8595 C 10.1974 6.988 10.1315 7.1122 10.0184 7.1835 L 10.0184 7.1835 ZM 10.0184 7.1835 L 10.0184 7.1835 Z" fill="#000000"/>
		<path d="M 2.8946 0 C 2.1824 0 1.1962 0.339 0.5438 1.9533 C 0.1425 2.9464 0 4.1163 0 4.8163 C 0 5.7805 0.519 6.656 1.3887 7.1588 C 1.6306 7.2986 1.7711 7.5349 1.7646 7.7909 L 1.4854 18.6316 C 1.4761 18.9943 1.6183 19.3372 1.8859 19.5972 C 2.1534 19.8567 2.5116 19.9998 2.8946 19.9998 C 3.2776 19.9998 3.6358 19.8567 3.9033 19.5972 C 4.1709 19.3372 4.313 18.9943 4.3037 18.6316 L 4.0246 7.7909 C 4.0182 7.5349 4.1586 7.2986 4.4004 7.1588 C 5.27 6.656 5.7892 5.7802 5.7892 4.8163 C 5.7892 4.1163 5.6469 2.9464 5.2455 1.9533 C 4.5928 0.339 3.6069 0 2.8946 0 L 2.8946 0 ZM 4.0443 6.6056 C 3.5981 6.8635 3.3287 7.3237 3.3412 7.8068 L 3.62 18.6474 C 3.6249 18.8342 3.5517 19.0107 3.4139 19.1445 C 3.2761 19.2782 3.0919 19.3518 2.8946 19.3518 C 2.6974 19.3518 2.5129 19.2782 2.3751 19.1445 C 2.2374 19.0107 2.1641 18.8342 2.169 18.6474 L 2.4479 7.8068 C 2.4604 7.3237 2.191 6.8635 1.7448 6.6056 C 1.0804 6.2215 0.6837 5.5527 0.6837 4.8163 C 0.6837 3.4563 1.2241 0.6479 2.8946 0.6479 C 4.5648 0.6479 5.1053 3.4563 5.1053 4.8163 C 5.1055 5.5527 4.7089 6.2215 4.0443 6.6056 L 4.0443 6.6056 ZM 4.0443 6.6056 L 4.0443 6.6056 Z" fill="#000000"/>
	</g>
</symbol><symbol id="corporate__icon--floors" viewBox="0 0 22 20">
 
<path id="Composite_Path" data-name="Composite Path" class="cls-1" d="M701,51a1.243,1.243,0,0,0-.674-1.115l-1.638-.837,1.638-.837h0a1.259,1.259,0,0,0,0-2.23l-9.248-4.724a2.377,2.377,0,0,0-2.156,0l-9.248,4.724a1.259,1.259,0,0,0,0,2.23l1.638,0.837-1.638.837a1.259,1.259,0,0,0,0,2.23l1.638,0.837-1.638.837a1.259,1.259,0,0,0,0,2.23l9.248,4.724a2.378,2.378,0,0,0,2.156,0l9.248-4.724a1.259,1.259,0,0,0,0-2.23l-1.638-.837,1.638-.837A1.243,1.243,0,0,0,701,51Zm-20.873-3.712a0.215,0.215,0,0,1,0-.381l9.247-4.724a1.381,1.381,0,0,1,1.252,0l9.247,4.723a0.215,0.215,0,0,1,0,.381l-9.247,4.723a1.381,1.381,0,0,1-1.252,0Zm19.746,7.425a0.215,0.215,0,0,1,0,.381l-9.247,4.724a1.38,1.38,0,0,1-1.252,0l-9.247-4.723a0.215,0.215,0,0,1,0-.381l2.316-1.183,6.479,3.309a2.378,2.378,0,0,0,2.156,0l6.479-3.309Zm0-3.522-9.247,4.724a1.381,1.381,0,0,1-1.252,0l-9.247-4.723a0.215,0.215,0,0,1,0-.381l2.316-1.183,6.479,3.309a2.377,2.377,0,0,0,2.156,0l6.479-3.309,2.316,1.183A0.216,0.216,0,0,1,699.873,51.191Z" transform="translate(-679 -41)"/>

</symbol><symbol id="corporate__icon--location" viewBox="0 0 17 20">
	<rect x="-816" y="-41" width="920" height="670" fill="#f6f6f6"/>
	<g>
		<g>
			<path d="M 5.6363 4.2174 C 3.7536 4.2174 2.2224 5.6895 2.2224 7.5 C 2.2224 9.3106 3.7536 10.7829 5.6363 10.7829 C 7.519 10.7829 9.0503 9.3106 9.0503 7.5 C 9.0503 5.6895 7.519 4.2174 5.6363 4.2174 L 5.6363 4.2174 ZM 5.6363 10.0872 C 4.153 10.0872 2.9467 8.9268 2.9467 7.5 C 2.9467 6.0736 4.153 4.9134 5.6363 4.9134 C 7.1198 4.9134 8.3261 6.0736 8.3261 7.5 C 8.3261 8.9268 7.1198 10.0872 5.6363 10.0872 L 5.6363 10.0872 ZM 5.6363 10.0872 L 5.6363 10.0872 Z" fill="#231f20"/>
			<path d="M 16.9272 4.5482 C 16.5228 1.5729 14.5977 0 11.3638 0 C 8.2343 0 6.8674 1.2943 6.2703 2.4577 C 6.0654 2.444 5.8533 2.4355 5.6363 2.4355 C 2.4022 2.4355 0.4793 4.0081 0.0729 6.9837 C -0.0633 7.972 -0.0085 9.0355 0.2356 10.1445 C 1.4432 15.6491 4.3578 18.9486 5.2213 19.8284 C 5.329 19.9372 5.4808 20 5.6363 20 C 5.7919 20 5.9438 19.9372 6.0513 19.8284 C 6.6008 19.2682 7.9815 17.7227 9.2233 15.2546 C 10.0075 16.3932 10.6769 17.1149 10.9505 17.3929 C 11.0566 17.5033 11.2085 17.5667 11.3638 17.5667 C 11.5211 17.5667 11.673 17.5033 11.7789 17.3929 C 12.6426 16.5134 15.5566 13.2116 16.7648 7.7109 C 17.0084 6.5999 17.0632 5.5368 16.9272 4.5482 L 16.9272 4.5482 ZM 5.6363 19.2363 C 4.8468 18.4004 2.0795 15.18 0.9436 10.0016 C 0.7175 8.9691 0.6646 7.9844 0.79 7.0739 C 1.1467 4.4564 2.7771 3.1302 5.6363 3.1302 C 6.8317 3.1302 7.8102 3.3665 8.5734 3.8281 C 9.9527 4.7012 10.3624 6.2845 10.4825 7.1621 C 10.4985 7.276 10.5109 7.3913 10.5197 7.512 C 10.5214 7.5221 10.5214 7.5326 10.5233 7.5426 C 10.532 7.6566 10.5374 7.7718 10.5426 7.8942 C 10.5567 8.5671 10.4879 9.2718 10.3289 10.0016 C 9.1915 15.18 6.4257 18.4004 5.6363 19.2363 L 5.6363 19.2363 ZM 9.1827 3.3766 C 9.6631 2.7822 10.4737 2.4355 11.4169 2.4355 C 12.9004 2.4355 14.1067 3.5957 14.1067 5.0221 C 14.1067 6.4486 12.9004 7.6087 11.4169 7.6087 C 11.3621 7.6087 11.3091 7.6071 11.2526 7.6038 C 11.2402 7.3945 11.2261 7.1862 11.1978 6.9837 C 10.9753 5.3464 10.29 4.1374 9.1827 3.3766 L 9.1827 3.3766 ZM 16.0565 7.5664 C 14.921 12.7428 12.155 15.9648 11.3638 16.8001 C 11.0213 16.4385 10.3448 15.6644 9.5836 14.5062 C 10.1523 13.2546 10.6716 11.8021 11.0354 10.1445 C 11.1749 9.5111 11.2438 8.8962 11.2596 8.2982 C 11.3126 8.3001 11.3657 8.3053 11.4169 8.3053 C 13.2996 8.3053 14.8309 6.8327 14.8309 5.0221 C 14.8309 3.2116 13.2996 1.7389 11.4169 1.7389 C 10.2106 1.7389 9.1721 2.2148 8.5612 3.0215 C 8.1108 2.806 7.6053 2.6494 7.0474 2.5527 C 7.7925 1.3249 9.2374 0.6966 11.3638 0.6966 C 14.2232 0.6966 15.8529 2.0228 16.2102 4.64 C 16.3355 5.5485 16.2844 6.5339 16.0565 7.5664 L 16.0565 7.5664 ZM 16.0565 7.5664 L 16.0565 7.5664 Z" fill="#231f20"/>
		</g>
	</g>
</symbol><symbol id="logo__icon--evraz" viewBox="0 0 69 20">
	<g id="Layer%201">
		<rect x="-105" y="-41" width="920" height="670" fill="#f6f6f6"/>
		<g>
			<path d="M 0 5.0072 L 22.415 5.0072 L 22.415 0.0096 L 0 0.0096 L 0 5.0072 Z" fill="#f9bd32"/>
			<path d="M 0 12.5066 L 22.415 12.5066 L 22.415 7.5129 L 0 7.5129 L 0 12.5066 Z" fill="#ff791a"/>
			<path d="M 0 20 L 22.415 20 L 22.415 15.0074 L 0 15.0074 L 0 20 Z" fill="#ff2f0b"/>
			<path d="M 29.8819 0.0146 L 29.876 20 L 46.2243 20 L 46.2243 16.4742 L 34.6382 16.4663 L 34.6382 11.7081 L 46.2243 11.7081 L 46.2243 8.1477 L 34.6382 8.1477 L 34.6382 3.581 L 46.2243 3.5681 L 46.2243 0.0146 L 46.2243 0.0146 " fill="#000000"/>
			<path d="M 54.872 3.6017 L 54.872 8.2224 L 61.203 8.2224 C 62.1452 8.2224 62.8394 8.0279 63.284 7.6663 C 63.7283 7.2765 63.9496 6.6912 63.9496 5.9121 C 63.9496 5.1047 63.7283 4.5209 63.284 4.1578 C 62.8394 3.7952 62.1452 3.6017 61.203 3.6017 L 61.203 3.6017 M 61.2592 16.4648 C 62.23 16.4648 62.9237 16.2694 63.3392 15.9067 C 63.784 15.5169 64.0058 14.9326 64.0058 14.0966 C 64.0058 13.2892 63.784 12.7045 63.3392 12.3438 C 62.8955 11.953 62.2018 11.7586 61.2592 11.7586 L 54.872 11.7586 L 54.872 16.4648 L 61.2592 16.4648 ZM 61.8414 20 L 50.6827 20 L 50.6827 0.0096 L 61.0911 0.0096 C 62.3966 0.0096 63.4497 0.0942 64.2834 0.2619 C 65.0875 0.399 65.725 0.6226 66.225 0.9288 C 66.9463 1.4017 67.5014 1.987 67.8889 2.7375 C 68.2789 3.4632 68.4727 4.2963 68.4727 5.215 C 68.4727 6.3296 68.2217 7.2765 67.7509 8.0561 C 67.2781 8.8343 66.5296 9.475 65.5318 10.0063 C 66.5567 10.4501 67.3081 11.0348 67.7765 11.7586 C 68.2789 12.51 68.5294 13.4287 68.5294 14.57 C 68.5294 16.4356 67.9732 17.8 66.9191 18.6633 C 65.8374 19.5533 64.1459 20 61.8414 20 L 61.8414 20 Z" fill="#000000"/>
		</g>
	</g>
</symbol><symbol id="news__icon--all" viewBox="0 0 27 21">
	
	<g>
			<path d="M 0 0.0001 L 26.0569 0.0001 L 26.0569 20.0096 L 0 20.0096 L 0 0.0001 Z" fill="none"/>
		<path clip-path="url(#mask1)" d="M 25.4944 12.2532 C 25.1733 12.0787 24.7656 12.1171 24.3759 12.3582 L 17.179 16.8129 C 16.9789 16.9369 16.9186 17.1968 17.0447 17.3937 C 17.1708 17.5907 17.4357 17.6497 17.6357 17.5257 L 24.8326 13.0712 C 24.9847 12.9772 25.0678 12.9841 25.0801 12.9906 C 25.0927 12.9975 25.1429 13.0627 25.1429 13.2394 C 25.1429 13.7138 24.7846 14.3521 24.3759 14.6049 L 17.399 18.9233 C 17.028 19.1528 16.6887 19.2159 16.4685 19.0966 C 16.2482 18.9771 16.1218 18.6611 16.1218 18.2302 C 16.1218 17.1384 16.9158 15.7247 17.8558 15.1429 L 25.7999 10.2259 C 25.9244 10.1488 26 10.0142 26 9.8693 C 26 9.7249 25.9244 9.5902 25.7999 9.5128 L 10.5353 0.0648 C 10.3955 -0.0216 10.2181 -0.0216 10.0786 0.0648 L 2.0376 5.0416 C 0.8951 5.749 0 7.3427 0 8.6697 L 0 8.8943 C 0 10.2217 0.8951 11.8154 2.0376 12.5225 L 13.9971 19.9249 C 14.1974 20.0488 14.4619 19.9899 14.588 19.7929 C 14.7141 19.596 14.6542 19.3361 14.4538 19.2121 L 2.4944 11.8097 C 1.6068 11.2604 0.8571 9.9253 0.8571 8.8943 L 0.8571 8.6697 C 0.8571 7.6389 1.6068 6.3041 2.4944 5.7548 L 10.3068 0.9191 L 24.767 9.8693 L 17.399 14.4299 C 16.2021 15.1707 15.2646 16.84 15.2646 18.2302 C 15.2646 18.9883 15.545 19.5579 16.0542 19.8341 C 16.2588 19.9451 16.4842 20 16.7233 20 C 17.0793 20 17.4652 19.8779 17.8556 19.6364 L 24.8326 15.3179 C 25.4872 14.9126 26 13.9999 26 13.2394 C 26 12.7869 25.8159 12.4276 25.4944 12.2532 L 25.4944 12.2532 ZM 25.4944 12.2532 L 25.4944 12.2532 Z" fill="#000000"/>
		<path d="M 20.209 10.2906 C 20.3516 10.2906 20.4908 10.2209 20.5723 10.0939 C 20.6984 9.8971 20.6382 9.6368 20.4379 9.5128 L 10.5353 3.3835 C 10.335 3.2596 10.0702 3.3188 9.9441 3.5157 C 9.818 3.7126 9.8782 3.9726 10.0786 4.0966 L 19.9811 10.2259 C 20.0522 10.2698 20.1312 10.2906 20.209 10.2906 L 20.209 10.2906 ZM 20.209 10.2906 L 20.209 10.2906 Z" fill="#000000"/>
		<path d="M 18.4959 11.4088 C 18.6385 11.4088 18.778 11.3385 18.8592 11.211 C 18.985 11.0141 18.9244 10.7541 18.7239 10.6304 L 14.5403 8.0521 C 14.3397 7.9285 14.0754 7.9882 13.9496 8.1852 C 13.8238 8.3823 13.8846 8.6424 14.0852 8.7657 L 18.2685 11.3443 C 18.3394 11.3879 18.4181 11.4088 18.4959 11.4088 L 18.4959 11.4088 ZM 18.4959 11.4088 L 18.4959 11.4088 Z" fill="#000000"/>
		<path d="M 12.7942 9.1606 C 12.5936 9.0375 12.3291 9.0976 12.2038 9.295 C 12.0786 9.4926 12.1396 9.7523 12.3403 9.8754 L 16.5559 12.4627 C 16.6265 12.506 16.7049 12.5266 16.7825 12.5266 C 16.9253 12.5266 17.0651 12.4564 17.1466 12.3283 C 17.2719 12.1311 17.2108 11.8712 17.0099 11.748 L 12.7942 9.1606 ZM 12.7942 9.1606 L 12.7942 9.1606 Z" fill="#000000"/>
		<path d="M 8.2976 4.486 L 4.736 6.6908 C 4.611 6.7681 4.5354 6.9033 4.5356 7.0483 C 4.5363 7.1938 4.6127 7.3284 4.7379 7.4052 L 8.9857 10.001 C 9.0549 10.0435 9.1335 10.0646 9.212 10.0646 C 9.2929 10.0646 9.3738 10.0421 9.4447 9.9971 L 10.3905 9.396 C 10.5895 9.2698 10.6464 9.009 10.518 8.8137 C 10.3894 8.6182 10.124 8.5623 9.9254 8.6884 L 9.2075 9.1445 L 5.7722 7.0451 L 8.5264 5.34 L 11.9117 7.4266 L 11.5172 7.6772 C 11.3182 7.8036 11.2614 8.0642 11.39 8.2597 C 11.5183 8.4551 11.7837 8.5109 11.9823 8.3848 L 12.9424 7.7749 C 13.0654 7.6967 13.1394 7.5624 13.1382 7.4181 C 13.1375 7.2744 13.0615 7.1408 12.9374 7.0643 L 8.7535 4.4857 C 8.6141 4.3997 8.4369 4.3999 8.2976 4.486 L 8.2976 4.486 ZM 8.2976 4.486 L 8.2976 4.486 Z" fill="#000000"/>
		<path d="M 15.4334 13.4456 C 15.5584 13.2479 15.4968 12.9882 15.2959 12.8655 L 11.0482 10.2695 C 10.8469 10.1464 10.5828 10.207 10.4578 10.4047 C 10.3328 10.6022 10.3944 10.8619 10.5956 10.9847 L 14.8433 13.5808 C 14.9136 13.6239 14.9921 13.6445 15.069 13.6445 C 15.2125 13.6445 15.3522 13.574 15.4334 13.4456 L 15.4334 13.4456 ZM 15.4334 13.4456 L 15.4334 13.4456 Z" fill="#000000"/>
		<path d="M 3.0585 8.0546 C 2.9335 8.2521 2.9952 8.5118 3.1964 8.6346 L 13.6807 15.0423 C 13.751 15.0854 13.8293 15.106 13.9067 15.106 C 14.0498 15.106 14.1898 15.0355 14.2708 14.9071 C 14.3958 14.7094 14.3341 14.4496 14.1332 14.3268 L 3.6489 7.9191 C 3.4478 7.7963 3.1835 7.8569 3.0585 8.0546 L 3.0585 8.0546 ZM 3.0585 8.0546 L 3.0585 8.0546 Z" fill="#000000"/>
	</g>
</symbol><symbol id="news__icon--region" viewBox="0 0 14 20">
	<g>
		<g>
			<path d="M 7.0656 4.384 C 5.6561 4.384 4.5097 5.5309 4.5097 6.9399 C 4.5097 8.3502 5.6561 9.4972 7.0656 9.4972 C 8.474 9.4972 9.6202 8.3502 9.6202 6.9399 C 9.6202 5.5309 8.474 4.384 7.0656 4.384 L 7.0656 4.384 ZM 7.0656 8.7662 C 6.0585 8.7662 5.2403 7.9476 5.2403 6.9399 C 5.2403 5.9336 6.0585 5.1136 7.0656 5.1136 C 8.0712 5.1136 8.8911 5.9336 8.8911 6.9399 C 8.8911 7.9476 8.0712 8.7662 7.0656 8.7662 L 7.0656 8.7662 ZM 7.0656 8.7662 L 7.0656 8.7662 Z" fill="#231f20"/>
			<path d="M 11.9517 2.0515 C 10.629 0.7297 8.8715 0 7.0016 0 C 5.13 0 3.3727 0.7297 2.0498 2.0515 C -0.3958 4.4999 -0.7006 9.1048 1.3921 11.8959 L 7.0016 20 L 12.6005 11.9071 C 14.7021 9.1048 14.3973 4.4999 11.9517 2.0515 L 11.9517 2.0515 ZM 12.0087 11.4804 L 7.0016 18.7177 L 1.9841 11.4697 C 0.087 8.9374 0.3582 4.7781 2.5668 2.5682 C 3.7524 1.3844 5.3261 0.7314 7.0016 0.7314 C 8.6754 0.7314 10.2494 1.3844 11.4348 2.5682 C 13.6432 4.7781 13.916 8.9374 12.0087 11.4804 L 12.0087 11.4804 ZM 12.0087 11.4804 L 12.0087 11.4804 Z" fill="#231f20"/>
		</g>
	</g>
</symbol><symbol id="user__icon--mail" viewBox="0 0 23 16">
	<g>
		<path d="M 18.6216 12.357 C 18.5311 12.357 18.4406 12.3251 18.3682 12.2578 L 14.1021 8.342 C 13.9536 8.2038 13.9463 7.977 14.084 7.8286 C 14.2251 7.6833 14.4606 7.6757 14.609 7.8148 L 18.8788 11.7298 C 19.0272 11.868 19.0344 12.0983 18.8933 12.2436 C 18.8208 12.3198 18.723 12.357 18.6216 12.357 L 18.6216 12.357 ZM 18.6216 12.357 L 18.6216 12.357 Z" fill="#231f20"/>
		<path d="M 4.3789 12.357 C 4.2765 12.357 4.1792 12.3198 4.1072 12.2436 C 3.9651 12.0983 3.9728 11.868 4.1208 11.7298 L 8.391 7.8148 C 8.5431 7.6757 8.7784 7.6833 8.916 7.8286 C 9.0577 7.977 9.0505 8.2038 8.9021 8.342 L 4.6318 12.2578 C 4.5594 12.3251 4.4685 12.357 4.3789 12.357 L 4.3789 12.357 ZM 4.3789 12.357 L 4.3789 12.357 Z" fill="#231f20"/>
		<path d="M 21.1458 16 L 1.8542 16 C 0.8325 16 0 15.1903 0 14.1856 L 0 1.8144 C 0 0.8155 0.8325 0 1.8542 0 L 21.1458 0 C 22.167 0 23 0.8155 23 1.8144 L 23 14.1856 C 23 15.1903 22.167 16 21.1458 16 L 21.1458 16 ZM 1.8542 0.7269 C 1.2422 0.7269 0.7424 1.2159 0.7424 1.8144 L 0.7424 14.1856 C 0.7424 14.788 1.2422 15.2735 1.8542 15.2735 L 21.1458 15.2735 C 21.7615 15.2735 22.2576 14.788 22.2576 14.1856 L 22.2576 1.8144 C 22.2576 1.2159 21.7615 0.7269 21.1458 0.7269 L 1.8542 0.7269 ZM 1.8542 0.7269 L 1.8542 0.7269 Z" fill="#231f20"/>
		<path d="M 11.5012 9.825 C 11.0056 9.825 10.5132 9.6638 10.1406 9.3449 L 0.6157 1.2159 C 0.46 1.0853 0.4451 0.8549 0.5793 0.7021 C 0.7139 0.5497 0.9484 0.5391 1.1041 0.6671 L 10.6255 8.7956 C 11.1003 9.1996 11.9001 9.1996 12.3745 8.7956 L 21.8845 0.6804 C 22.0403 0.5497 22.2721 0.5635 22.4097 0.7158 C 22.5437 0.8682 22.5293 1.095 22.3735 1.2266 L 12.8634 9.3413 C 12.4868 9.6638 11.9944 9.825 11.5012 9.825 L 11.5012 9.825 ZM 11.5012 9.825 L 11.5012 9.825 Z" fill="#231f20"/>
	</g>
</symbol><symbol id="user__icon--search" viewBox="0 0 16 16">
	<g>
		<path d="M 15.8616 15.1839 L 11.9725 11.2957 C 13.0157 10.0966 13.6473 8.532 13.6473 6.8222 C 13.6473 3.0581 10.585 0 6.8237 0 C 3.0588 0 0 3.0616 0 6.8222 C 0 10.5827 3.0623 13.6443 6.8237 13.6443 C 8.5339 13.6443 10.0989 13.0128 11.2982 11.9699 L 15.1873 15.8581 C 15.2796 15.9503 15.4039 16 15.5244 16 C 15.645 16 15.7692 15.9539 15.8616 15.8581 C 16.0461 15.6736 16.0461 15.3684 15.8616 15.1839 L 15.8616 15.1839 ZM 0.9545 6.8222 C 0.9545 3.5866 3.5874 0.9579 6.8202 0.9579 C 10.0562 0.9579 12.6857 3.5903 12.6857 6.8222 C 12.6857 10.054 10.0562 12.69 6.8202 12.69 C 3.5874 12.69 0.9545 10.0577 0.9545 6.8222 L 0.9545 6.8222 ZM 0.9545 6.8222 L 0.9545 6.8222 Z" fill="#000000"/>
	</g>
</symbol></svg>