<?xml version="1.0" standalone="no"?>
<!-- Generator: Adobe Fireworks 10, Export SVG Extension by Aaron Beall (http://fireworks.abeall.com) . Version: 0.6.1  -->
<!DOCTYPE svg PUBLIC "-//W3C//DTD SVG 1.1//EN" "http://www.w3.org/Graphics/SVG/1.1/DTD/svg11.dtd">
<svg id="01%20-%20%u0433%u043B%u0430%u0432%u043D%u0430%u044F_1280-Page%201" viewBox="0 0 23 16" style="background-color:#ffffff" version="1.1"
	xmlns="http://www.w3.org/2000/svg" xmlns:xlink="http://www.w3.org/1999/xlink" xml:space="preserve"
	x="0px" y="0px" width="23px" height="16px"
>
	<g>
		<path d="M 18.6216 12.357 C 18.5311 12.357 18.4406 12.3251 18.3682 12.2578 L 14.1021 8.342 C 13.9536 8.2038 13.9463 7.977 14.084 7.8286 C 14.2251 7.6833 14.4606 7.6757 14.609 7.8148 L 18.8788 11.7298 C 19.0272 11.868 19.0344 12.0983 18.8933 12.2436 C 18.8208 12.3198 18.723 12.357 18.6216 12.357 L 18.6216 12.357 ZM 18.6216 12.357 L 18.6216 12.357 Z" fill="#231f20"/>
		<path d="M 4.3789 12.357 C 4.2765 12.357 4.1792 12.3198 4.1072 12.2436 C 3.9651 12.0983 3.9728 11.868 4.1208 11.7298 L 8.391 7.8148 C 8.5431 7.6757 8.7784 7.6833 8.916 7.8286 C 9.0577 7.977 9.0505 8.2038 8.9021 8.342 L 4.6318 12.2578 C 4.5594 12.3251 4.4685 12.357 4.3789 12.357 L 4.3789 12.357 ZM 4.3789 12.357 L 4.3789 12.357 Z" fill="#231f20"/>
		<path d="M 21.1458 16 L 1.8542 16 C 0.8325 16 0 15.1903 0 14.1856 L 0 1.8144 C 0 0.8155 0.8325 0 1.8542 0 L 21.1458 0 C 22.167 0 23 0.8155 23 1.8144 L 23 14.1856 C 23 15.1903 22.167 16 21.1458 16 L 21.1458 16 ZM 1.8542 0.7269 C 1.2422 0.7269 0.7424 1.2159 0.7424 1.8144 L 0.7424 14.1856 C 0.7424 14.788 1.2422 15.2735 1.8542 15.2735 L 21.1458 15.2735 C 21.7615 15.2735 22.2576 14.788 22.2576 14.1856 L 22.2576 1.8144 C 22.2576 1.2159 21.7615 0.7269 21.1458 0.7269 L 1.8542 0.7269 ZM 1.8542 0.7269 L 1.8542 0.7269 Z" fill="#231f20"/>
		<path d="M 11.5012 9.825 C 11.0056 9.825 10.5132 9.6638 10.1406 9.3449 L 0.6157 1.2159 C 0.46 1.0853 0.4451 0.8549 0.5793 0.7021 C 0.7139 0.5497 0.9484 0.5391 1.1041 0.6671 L 10.6255 8.7956 C 11.1003 9.1996 11.9001 9.1996 12.3745 8.7956 L 21.8845 0.6804 C 22.0403 0.5497 22.2721 0.5635 22.4097 0.7158 C 22.5437 0.8682 22.5293 1.095 22.3735 1.2266 L 12.8634 9.3413 C 12.4868 9.6638 11.9944 9.825 11.5012 9.825 L 11.5012 9.825 ZM 11.5012 9.825 L 11.5012 9.825 Z" fill="#231f20"/>
	</g>
</svg>