<?xml version="1.0" standalone="no"?>
<!-- Generator: Adobe Fireworks 10, Export SVG Extension by Aaron Beall (http://fireworks.abeall.com) . Version: 0.6.1  -->
<!DOCTYPE svg PUBLIC "-//W3C//DTD SVG 1.1//EN" "http://www.w3.org/Graphics/SVG/1.1/DTD/svg11.dtd">
<svg id="01%20-%20%u0433%u043B%u0430%u0432%u043D%u0430%u044F_1280-Page%201" viewBox="0 0 16 16" style="background-color:#ffffff" version="1.1"
	xmlns="http://www.w3.org/2000/svg" xmlns:xlink="http://www.w3.org/1999/xlink" xml:space="preserve"
	x="0px" y="0px" width="16px" height="16px"
>
	<g>
		<path d="M 15.8616 15.1839 L 11.9725 11.2957 C 13.0157 10.0966 13.6473 8.532 13.6473 6.8222 C 13.6473 3.0581 10.585 0 6.8237 0 C 3.0588 0 0 3.0616 0 6.8222 C 0 10.5827 3.0623 13.6443 6.8237 13.6443 C 8.5339 13.6443 10.0989 13.0128 11.2982 11.9699 L 15.1873 15.8581 C 15.2796 15.9503 15.4039 16 15.5244 16 C 15.645 16 15.7692 15.9539 15.8616 15.8581 C 16.0461 15.6736 16.0461 15.3684 15.8616 15.1839 L 15.8616 15.1839 ZM 0.9545 6.8222 C 0.9545 3.5866 3.5874 0.9579 6.8202 0.9579 C 10.0562 0.9579 12.6857 3.5903 12.6857 6.8222 C 12.6857 10.054 10.0562 12.69 6.8202 12.69 C 3.5874 12.69 0.9545 10.0577 0.9545 6.8222 L 0.9545 6.8222 ZM 0.9545 6.8222 L 0.9545 6.8222 Z" fill="#000000"/>
	</g>
</svg>